<?xml version="1.0" encoding="UTF-8"?>
<svg id="Layer_2" data-name="Layer 2" xmlns="http://www.w3.org/2000/svg" viewBox="0 0 834.97 188.46">
  <g id="Layer_1-2" data-name="Layer 1">
    <g>
      <g>
        <path d="M275.85,140.83v-75.36h-24.69c-1.33,0-2.4-1.08-2.4-2.4v-12.27c0-1.33,1.08-2.4,2.4-2.4h68.35c1.33,0,2.4,1.08,2.4,2.4v12.27c0,1.33-1.08,2.4-2.4,2.4h-24.69v75.36c0,1.33-1.08,2.4-2.4,2.4h-14.16c-1.33,0-2.4-1.08-2.4-2.4Z"/>
        <path d="M356.8,144.99c-7.5,0-14.38-1.6-20.66-4.81-5.68-2.9-10.48-7.44-14.43-13.63-.7-1.1-.34-2.58.77-3.29l12.24-7.79c1.12-.71,2.65-.4,3.32.75,2.23,3.79,4.92,6.63,8.06,8.5,3.7,2.21,7.63,3.32,11.78,3.32,4.42,0,7.9-.99,10.43-2.98,2.53-1.99,3.8-4.61,3.8-7.86s-1-5.69-2.98-7.59c-1.99-1.9-4.63-3.43-7.92-4.61-3.3-1.17-6.89-2.26-10.77-3.25-7.32-1.9-13.14-5.03-17.48-9.42-4.33-4.38-6.5-10.14-6.5-17.27,0-5.69,1.4-10.66,4.2-14.9,2.8-4.24,6.71-7.54,11.72-9.89,5.01-2.35,10.86-3.52,17.54-3.52,7.4,0,13.59,1.54,18.56,4.61,4.33,2.68,8.12,6.32,11.35,10.93.78,1.11.42,2.67-.74,3.39l-12.14,7.48c-1.07.66-2.5.39-3.21-.65-1.88-2.75-3.83-4.84-5.83-6.25-2.44-1.71-5.42-2.57-8.94-2.57-3.79,0-6.93.95-9.41,2.85-2.49,1.9-3.72,4.43-3.72,7.59,0,3.52,1.47,6.08,4.4,7.65,2.93,1.58,6.48,3,10.63,4.27,2.8.9,5.94,1.96,9.42,3.18,3.48,1.22,6.84,2.89,10.09,5.01,3.25,2.12,5.92,4.95,7.99,8.47,2.08,3.52,3.12,7.99,3.12,13.41,0,5.69-1.4,10.7-4.2,15.04-2.8,4.33-6.77,7.72-11.92,10.16-5.15,2.44-11.34,3.66-18.56,3.66Z"/>
        <path d="M391.46,139.92l36.78-90.03c.37-.9,1.25-1.49,2.22-1.49h13.17c.98,0,1.86.59,2.22,1.5l36.65,90.03c.64,1.58-.52,3.31-2.22,3.31h-15.33c-1.01,0-1.92-.63-2.26-1.59l-5.93-16.43h-39.56l-5.93,16.43c-.34.95-1.25,1.59-2.26,1.59h-15.33c-1.71,0-2.87-1.73-2.22-3.31ZM433.6,82.94l-10.16,25.88h27.1l-10.16-25.88c-1.35-3.61-2.48-7.22-3.39-10.83,0,0,0,0,0,0-.9,3.88-2.03,7.49-3.39,10.83Z"/>
        <path d="M712.44,139.92l36.78-90.03c.37-.9,1.25-1.49,2.22-1.49h13.17c.98,0,1.86.59,2.22,1.5l36.65,90.03c.64,1.58-.52,3.31-2.22,3.31h-15.33c-1.01,0-1.92-.63-2.26-1.59l-5.93-16.43h-39.56l-5.93,16.43c-.34.95-1.25,1.59-2.26,1.59h-15.33c-1.71,0-2.87-1.73-2.22-3.31ZM754.58,82.94l-10.16,25.88h27.1l-10.16-25.88c-1.35-3.61-2.48-7.22-3.39-10.83,0,0,0,0,0,0-.9,3.88-2.03,7.49-3.39,10.83Z"/>
        <path d="M488.06,140.82V50.79c0-1.33,1.08-2.4,2.4-2.4h14.16c1.33,0,2.4,1.08,2.4,2.4v75.36h32.96c1.33,0,2.4,1.08,2.4,2.4v12.27c0,1.33-1.08,2.4-2.4,2.4h-49.52c-1.33,0-2.4-1.08-2.4-2.4Z"/>
        <path d="M552.54,140.82V50.79c0-1.33,1.08-2.4,2.4-2.4h14.16c1.33,0,2.4,1.08,2.4,2.4v90.03c0,1.33-1.08,2.4-2.4,2.4h-14.16c-1.33,0-2.4-1.08-2.4-2.4Z"/>
        <path d="M813.42,140.82V50.79c0-1.33,1.08-2.4,2.4-2.4h14.16c1.33,0,2.4,1.08,2.4,2.4v90.03c0,1.33-1.08,2.4-2.4,2.4h-14.16c-1.33,0-2.4-1.08-2.4-2.4Z"/>
        <path d="M585.06,143.23V48.39h14.36l46.2,54.87c1.08,1.27,2.14,2.55,3.19,3.86,1.04,1.31,2.05,2.64,3.05,4-.27-1.99-.45-4.36-.54-7.11-.09-2.75-.14-5.53-.14-8.33v-47.28h17.34v94.83h-12.33l-47.96-57.04c-1.08-1.26-2.15-2.55-3.19-3.86-1.04-1.31-2.05-2.64-3.05-4,.27,1.99.45,4.36.54,7.11.09,2.76.14,5.53.14,8.33v49.45h-17.61Z"/>
        <path d="M690.46,144.99c-3.52,0-6.44-1.18-8.74-3.52s-3.45-5.15-3.45-8.4,1.15-5.91,3.45-8.26c2.3-2.35,5.22-3.52,8.74-3.52s6.41,1.17,8.67,3.52c2.26,2.35,3.39,5.1,3.39,8.26s-1.13,6.05-3.39,8.4c-2.26,2.35-5.15,3.52-8.67,3.52Z"/>
        <path d="M834.3,30.61l-6.24,3.05c-.48.24-.87.63-1.11,1.11l-3.03,6.23c-.44.9-1.72.9-2.16,0l-3.05-6.25c-.23-.48-.62-.86-1.09-1.1l-6.15-3.05c-.89-.44-.89-1.71,0-2.15l6.14-3.03c.48-.24.86-.62,1.1-1.1l3.05-6.25c.44-.9,1.72-.9,2.16,0l3.03,6.23c.24.48.63.88,1.11,1.11l6.23,3.03c.9.44.9,1.72,0,2.16Z"/>
      </g>
      <path d="M153.19,0H35.27C15.78,0,0,15.78,0,35.27v117.92c0,19.49,15.78,35.27,35.27,35.27h117.92c19.49,0,35.27-15.78,35.27-35.27V35.27c0-19.49-15.78-35.27-35.27-35.27ZM94.68,71.48c0,.99-.8,1.74-1.78,1.74h-18.13v9.06l7.75-2.82c1.17-.42,2.4.42,2.4,1.64v8.78c0,.75-.47,1.41-1.17,1.69l-8.97,3.24v5.68l7.75-2.87c1.17-.42,2.4.47,2.4,1.69v8.78c0,.71-.47,1.41-1.17,1.64l-8.97,3.29v15.55c0,.99-.8,1.78-1.78,1.78h-10.38c-.99,0-1.78-.8-1.78-1.78v-10.47l-7.8,2.82c-1.13.42-2.35-.42-2.35-1.64v-8.78c0-.75.47-1.41,1.17-1.69l8.97-3.24v-5.68l-7.8,2.87c-1.13.42-2.35-.42-2.35-1.69v-8.78c0-.71.47-1.36,1.17-1.64l8.97-3.29v-14.14h-18.13c-.99,0-1.78-.75-1.78-1.74v-9.02c0-.99.8-1.78,1.78-1.78h50.2c.99,0,1.78.8,1.78,1.78v9.02ZM142.86,123.75c-3.15,3.62-7.51,5.96-13.15,7.09v6.11c0,.99-.8,1.78-1.78,1.78h-7.37c-.99,0-1.78-.8-1.78-1.78v-5.4c-4.84-.37-9.3-1.78-13.29-4.18-3.57-2.11-6.67-5.21-9.2-9.25-.52-.8-.23-1.88.56-2.4l8.97-5.73c.85-.52,1.97-.28,2.44.52,1.64,2.82,3.62,4.88,5.92,6.25,2.72,1.64,5.64,2.44,8.69,2.44,3.24,0,5.78-.7,7.66-2.16,1.88-1.46,2.77-3.38,2.77-5.78s-.7-4.18-2.16-5.59c-1.46-1.36-3.43-2.49-5.82-3.38-2.44-.85-5.07-1.64-7.94-2.4-5.35-1.36-9.63-3.66-12.82-6.9s-4.79-7.47-4.79-12.68,1.74-9.96,5.17-13.57c3.48-3.62,8.08-5.92,13.85-6.86v-8.36c0-.99.8-1.78,1.78-1.78h7.37c.99,0,1.78.8,1.78,1.78v8.36c3.9.75,7.28,2.16,10.14,4.27,2.44,1.83,4.56,4.09,6.48,6.76.56.8.28,1.97-.56,2.49l-8.92,5.49c-.8.47-1.83.28-2.35-.47-1.41-2.02-2.82-3.57-4.27-4.6-1.78-1.27-3.99-1.88-6.57-1.88-2.82,0-5.12.7-6.95,2.07-1.78,1.41-2.72,3.29-2.72,5.59,0,2.58,1.08,4.46,3.24,5.64,2.16,1.13,4.74,2.21,7.8,3.1,2.07.71,4.37,1.46,6.95,2.35,2.54.89,5.03,2.11,7.42,3.71,2.35,1.55,4.32,3.62,5.87,6.2,1.5,2.58,2.25,5.87,2.25,9.86,0,5.26-1.55,9.67-4.65,13.29ZM158.83,41.61l-4.6,2.25c-.33.14-.61.47-.8.8l-2.21,4.6c-.33.66-1.27.66-1.6,0l-2.25-4.6c-.14-.37-.42-.66-.8-.8l-4.51-2.25c-.66-.33-.66-1.27,0-1.6l4.51-2.21c.38-.19.66-.47.8-.8l2.25-4.6c.33-.66,1.27-.66,1.6,0l2.21,4.6c.19.33.47.61.8.8l4.6,2.21c.66.33.66,1.27,0,1.6Z"/>
    </g>
  </g>
</svg>