<?xml version="1.0" encoding="UTF-8"?>
<svg id="Layer_2" data-name="Layer 2" xmlns="http://www.w3.org/2000/svg" viewBox="0 0 347.33 75.59">
  <g id="Layer_1-2" data-name="Layer 1">
    <g>
      <path d="M16.05,73.12V28.47H1.42c-.79,0-1.42-.64-1.42-1.42v-7.27c0-.79.64-1.42,1.42-1.42h40.5c.79,0,1.42.64,1.42,1.42v7.27c0,.79-.64,1.42-1.42,1.42h-14.63v44.65c0,.79-.64,1.42-1.42,1.42h-8.39c-.79,0-1.42-.64-1.42-1.42Z"/>
      <path d="M64.02,75.59c-4.44,0-8.52-.95-12.24-2.85-3.36-1.72-6.21-4.41-8.55-8.07-.42-.65-.2-1.53.45-1.95l7.25-4.61c.67-.42,1.57-.23,1.97.45,1.32,2.25,2.91,3.93,4.77,5.04,2.19,1.31,4.52,1.97,6.98,1.97,2.62,0,4.68-.59,6.18-1.77,1.5-1.18,2.25-2.73,2.25-4.66s-.59-3.37-1.77-4.49-2.74-2.03-4.69-2.73c-1.95-.69-4.08-1.34-6.38-1.93-4.34-1.12-7.79-2.98-10.36-5.58-2.57-2.6-3.85-6.01-3.85-10.23,0-3.37.83-6.31,2.49-8.83,1.66-2.51,3.97-4.47,6.94-5.86,2.97-1.39,6.43-2.09,10.39-2.09,4.39,0,8.05.91,11,2.73,2.57,1.59,4.81,3.75,6.73,6.47.46.66.25,1.58-.44,2.01l-7.19,4.43c-.64.39-1.48.23-1.9-.38-1.12-1.63-2.27-2.87-3.46-3.7-1.44-1.02-3.21-1.53-5.3-1.53-2.25,0-4.11.56-5.58,1.69-1.47,1.12-2.21,2.62-2.21,4.49,0,2.09.87,3.6,2.61,4.54,1.74.94,3.84,1.78,6.3,2.53,1.66.54,3.52,1.16,5.58,1.89,2.06.72,4.05,1.71,5.98,2.97,1.93,1.26,3.5,2.93,4.74,5.02,1.23,2.09,1.85,4.74,1.85,7.95,0,3.37-.83,6.34-2.49,8.91-1.66,2.57-4.01,4.57-7.06,6.02-3.05,1.44-6.72,2.17-11,2.17Z"/>
      <path d="M84.55,72.58l21.79-53.34c.22-.54.74-.88,1.32-.88h7.8c.58,0,1.1.35,1.32.89l21.72,53.34c.38.94-.31,1.96-1.32,1.96h-9.08c-.6,0-1.13-.38-1.34-.94l-3.51-9.74h-23.44l-3.51,9.74c-.2.56-.74.94-1.34.94h-9.08c-1.01,0-1.7-1.03-1.32-1.96ZM109.52,38.83l-6.02,15.33h16.05l-6.02-15.33c-.8-2.14-1.47-4.28-2.01-6.42,0,0,0,0,0,0-.53,2.3-1.2,4.44-2.01,6.42Z"/>
      <path d="M274.73,72.58l21.79-53.34c.22-.54.74-.88,1.32-.88h7.8c.58,0,1.1.35,1.32.89l21.72,53.34c.38.94-.31,1.96-1.32,1.96h-9.08c-.6,0-1.13-.38-1.34-.94l-3.51-9.74h-23.44l-3.51,9.74c-.2.56-.74.94-1.34.94h-9.08c-1.01,0-1.7-1.03-1.32-1.96ZM299.7,38.83l-6.02,15.33h16.05l-6.02-15.33c-.8-2.14-1.47-4.28-2.01-6.42,0,0,0,0,0,0-.53,2.3-1.2,4.44-2.01,6.42Z"/>
      <path d="M141.78,73.12V19.78c0-.79.64-1.42,1.42-1.42h8.39c.79,0,1.42.64,1.42,1.42v44.65h19.53c.79,0,1.42.64,1.42,1.42v7.27c0,.79-.64,1.42-1.42,1.42h-29.34c-.79,0-1.42-.64-1.42-1.42Z"/>
      <path d="M179.99,73.12V19.78c0-.79.64-1.42,1.42-1.42h8.39c.79,0,1.42.64,1.42,1.42v53.34c0,.79-.64,1.42-1.42,1.42h-8.39c-.79,0-1.42-.64-1.42-1.42Z"/>
      <path d="M334.56,73.12V19.78c0-.79.64-1.42,1.42-1.42h8.39c.79,0,1.42.64,1.42,1.42v53.34c0,.79-.64,1.42-1.42,1.42h-8.39c-.79,0-1.42-.64-1.42-1.42Z"/>
      <path d="M199.26,74.55V18.36h8.51l27.37,32.51c.64.75,1.27,1.51,1.89,2.29.61.78,1.21,1.56,1.81,2.37-.16-1.18-.27-2.58-.32-4.21-.05-1.63-.08-3.28-.08-4.94v-28.01h10.28v56.19h-7.31l-28.41-33.79c-.64-.75-1.27-1.51-1.89-2.29-.61-.77-1.22-1.56-1.81-2.37.16,1.18.27,2.58.32,4.21.05,1.63.08,3.28.08,4.94v29.3h-10.44Z"/>
      <path d="M261.7,75.59c-2.09,0-3.81-.7-5.18-2.09s-2.05-3.05-2.05-4.98.68-3.5,2.05-4.9c1.36-1.39,3.09-2.09,5.18-2.09s3.8.7,5.14,2.09c1.34,1.39,2.01,3.02,2.01,4.9s-.67,3.59-2.01,4.98c-1.34,1.39-3.05,2.09-5.14,2.09Z"/>
      <path d="M346.93,7.82l-3.7,1.8c-.29.14-.52.37-.66.66l-1.79,3.69c-.26.53-1.02.53-1.28,0l-1.81-3.7c-.14-.28-.37-.51-.65-.65l-3.64-1.81c-.53-.26-.53-1.01,0-1.28l3.64-1.8c.28-.14.51-.37.65-.65l1.81-3.7c.26-.53,1.02-.53,1.28,0l1.79,3.69c.14.29.37.52.66.66l3.69,1.79c.53.26.53,1.02,0,1.28Z"/>
    </g>
  </g>
</svg>