<?xml version="1.0" encoding="UTF-8"?>
<svg id="Layer_2" data-name="Layer 2" xmlns="http://www.w3.org/2000/svg" viewBox="0 0 413.14 318.38">
  <defs>
    <style>
      .cls-1 {
        fill: #020202;
      }
    </style>
  </defs>
  <g id="Layer_1-2" data-name="Layer 1">
    <g>
      <g>
        <g>
          <path d="M230.23,135.41v-5.21c-4.67-.38-8.94-1.73-12.8-4.03-3.46-2.06-6.42-5.03-8.88-8.93-.49-.78-.23-1.83.55-2.32l8.67-5.52c.8-.51,1.87-.28,2.35.53,1.58,2.69,3.48,4.69,5.71,6.02,2.62,1.57,5.4,2.35,8.34,2.35,3.13,0,5.6-.7,7.39-2.11,1.79-1.41,2.69-3.26,2.69-5.56s-.71-4.03-2.11-5.37-3.28-2.43-5.61-3.26c-2.34-.83-4.88-1.6-7.63-2.3-5.18-1.34-9.31-3.56-12.38-6.67-3.07-3.1-4.6-7.18-4.6-12.23s1.66-9.61,4.99-13.09c3.32-3.48,7.77-5.67,13.33-6.57v-8.08c0-.94.76-1.7,1.7-1.7h7.15c.94,0,1.7.76,1.7,1.7v8.08c3.77.7,7.04,2.08,9.79,4.13,2.32,1.73,4.39,3.89,6.22,6.49.55.79.3,1.89-.52,2.39l-8.6,5.3c-.76.47-1.77.28-2.27-.46-1.33-1.95-2.71-3.42-4.13-4.42-1.73-1.21-3.84-1.82-6.33-1.82-2.68,0-4.91.67-6.67,2.01-1.76,1.34-2.64,3.13-2.64,5.37,0,2.49,1.04,4.3,3.12,5.42,2.08,1.12,4.59,2.13,7.53,3.02,1.98.64,4.2,1.39,6.67,2.25,2.46.86,4.84,2.05,7.14,3.55,2.3,1.5,4.19,3.5,5.66,6,1.47,2.49,2.21,5.66,2.21,9.5,0,5.05-1.5,9.32-4.51,12.81-3.01,3.49-7.23,5.77-12.66,6.86v5.88c0,.94-.76,1.7-1.7,1.7h-7.15c-.94,0-1.7-.76-1.7-1.7Z"/>
          <path d="M205.29,61.91h-48.4c-.94,0-1.7.76-1.7,1.7v8.69c0,.94.76,1.7,1.7,1.7h17.48v13.63l-8.67,3.15c-.67.24-1.12.88-1.12,1.6v8.47c0,1.18,1.17,2,2.28,1.6l7.5-2.73v5.44l-8.67,3.15c-.67.24-1.12.88-1.12,1.6v8.47c0,1.18,1.17,2,2.28,1.6l7.5-2.73v10.12c0,.94.76,1.7,1.7,1.7h10.03c.94,0,1.7-.76,1.7-1.7v-15.01l8.67-3.15c.67-.24,1.12-.88,1.12-1.6v-8.47c0-1.18-1.17-2-2.28-1.6l-7.5,2.73v-5.44l8.67-3.15c.67-.24,1.12-.88,1.12-1.6v-8.47c0-1.18-1.17-2-2.28-1.6l-7.5,2.73v-8.74h17.48c.94,0,1.7-.76,1.7-1.7v-8.69c0-.94-.76-1.7-1.7-1.7Z"/>
        </g>
        <path d="M263.39,188.47h-113.64c-20.63,0-37.41-16.78-37.41-37.41V37.41c0-20.63,16.78-37.41,37.41-37.41h113.64c20.63,0,37.41,16.78,37.41,37.41v113.64c0,20.63-16.78,37.41-37.41,37.41ZM149.75,6.8c-16.88,0-30.61,13.73-30.61,30.61v113.64c0,16.88,13.73,30.61,30.61,30.61h113.64c16.88,0,30.61-13.73,30.61-30.61V37.41c0-16.88-13.73-30.61-30.61-30.61h-113.64Z"/>
        <path class="cls-1" d="M268.84,43.52l-4.42,2.16c-.34.17-.62.44-.78.79l-2.14,4.41c-.31.64-1.22.64-1.53,0l-2.16-4.42c-.16-.34-.44-.61-.77-.78l-4.35-2.16c-.63-.31-.63-1.21,0-1.52l4.35-2.15c.34-.17.61-.44.78-.78l2.16-4.42c.31-.64,1.22-.64,1.53,0l2.14,4.41c.17.34.44.62.79.79l4.41,2.14c.64.31.64,1.22,0,1.53Z"/>
      </g>
      <g>
        <path d="M19.1,315.45v-53.11H1.69c-.93,0-1.69-.76-1.69-1.69v-8.65c0-.93.76-1.69,1.69-1.69h48.17c.93,0,1.69.76,1.69,1.69v8.65c0,.93-.76,1.69-1.69,1.69h-17.4v53.11c0,.93-.76,1.69-1.69,1.69h-9.98c-.93,0-1.69-.76-1.69-1.69Z"/>
        <path d="M76.15,318.38c-5.28,0-10.14-1.13-14.56-3.39-4-2.04-7.39-5.24-10.17-9.6-.5-.78-.24-1.82.54-2.32l8.63-5.49c.79-.5,1.86-.28,2.34.53,1.57,2.67,3.46,4.67,5.68,5.99,2.61,1.56,5.38,2.34,8.3,2.34,3.12,0,5.57-.7,7.35-2.1,1.78-1.4,2.67-3.25,2.67-5.54s-.7-4.01-2.1-5.35-3.26-2.42-5.58-3.25c-2.32-.83-4.85-1.59-7.59-2.29-5.16-1.34-9.26-3.55-12.32-6.64-3.05-3.09-4.58-7.14-4.58-12.17,0-4.01.99-7.51,2.96-10.5,1.97-2.99,4.73-5.31,8.26-6.97,3.53-1.65,7.65-2.48,12.36-2.48,5.22,0,9.58,1.08,13.08,3.25,3.05,1.89,5.72,4.46,8,7.7.55.79.3,1.88-.52,2.39l-8.55,5.27c-.76.47-1.76.28-2.26-.46-1.33-1.94-2.7-3.41-4.11-4.4-1.72-1.21-3.82-1.81-6.3-1.81-2.67,0-4.88.67-6.64,2.01-1.75,1.34-2.62,3.12-2.62,5.35,0,2.48,1.03,4.28,3.1,5.39,2.07,1.11,4.57,2.12,7.49,3.01,1.97.64,4.18,1.38,6.64,2.24,2.45.86,4.82,2.04,7.11,3.53,2.29,1.5,4.17,3.49,5.63,5.97,1.46,2.48,2.2,5.63,2.2,9.45,0,4.01-.99,7.54-2.96,10.6-1.97,3.05-4.77,5.44-8.4,7.16-3.63,1.72-7.99,2.58-13.08,2.58Z"/>
        <path d="M100.57,314.81l25.92-63.45c.26-.64.88-1.05,1.57-1.05h9.28c.69,0,1.31.42,1.57,1.05l25.83,63.45c.45,1.11-.37,2.33-1.57,2.33h-10.81c-.71,0-1.35-.45-1.59-1.12l-4.18-11.58h-27.88l-4.18,11.58c-.24.67-.88,1.12-1.59,1.12h-10.8c-1.2,0-2.02-1.22-1.57-2.33ZM130.27,274.65l-7.16,18.24h19.1l-7.16-18.24c-.95-2.54-1.75-5.09-2.39-7.63,0,0,0,0,0,0-.64,2.74-1.43,5.28-2.39,7.63Z"/>
        <path d="M326.79,314.81l25.92-63.45c.26-.64.88-1.05,1.57-1.05h9.28c.69,0,1.31.42,1.57,1.05l25.83,63.45c.45,1.11-.37,2.33-1.57,2.33h-10.81c-.71,0-1.35-.45-1.59-1.12l-4.18-11.58h-27.88l-4.18,11.58c-.24.67-.88,1.12-1.59,1.12h-10.8c-1.2,0-2.02-1.22-1.57-2.33ZM356.49,274.65l-7.16,18.24h19.1l-7.16-18.24c-.95-2.54-1.75-5.09-2.39-7.63,0,0,0,0,0,0-.64,2.74-1.43,5.28-2.39,7.63Z"/>
        <path d="M168.65,315.45v-63.45c0-.93.76-1.69,1.69-1.69h9.98c.93,0,1.69.76,1.69,1.69v53.11h23.23c.93,0,1.69.76,1.69,1.69v8.65c0,.93-.76,1.69-1.69,1.69h-34.9c-.93,0-1.69-.76-1.69-1.69Z"/>
        <path d="M214.1,315.45v-63.45c0-.93.76-1.69,1.69-1.69h9.98c.93,0,1.69.76,1.69,1.69v63.45c0,.93-.76,1.69-1.69,1.69h-9.98c-.93,0-1.69-.76-1.69-1.69Z"/>
        <path d="M397.96,315.45v-63.45c0-.93.76-1.69,1.69-1.69h9.98c.93,0,1.69.76,1.69,1.69v63.45c0,.93-.76,1.69-1.69,1.69h-9.98c-.93,0-1.69-.76-1.69-1.69Z"/>
        <path d="M237.01,317.14v-66.84h10.12l32.56,38.67c.76.89,1.51,1.8,2.24,2.72.73.92,1.44,1.86,2.15,2.82-.19-1.4-.32-3.07-.38-5.01-.06-1.94-.1-3.9-.1-5.87v-33.32h12.22v66.84h-8.69l-33.8-40.2c-.76-.89-1.51-1.8-2.24-2.72-.73-.92-1.45-1.86-2.15-2.82.19,1.4.32,3.07.38,5.01.06,1.94.1,3.9.1,5.87v34.85h-12.41Z"/>
        <path d="M311.29,318.38c-2.48,0-4.54-.83-6.16-2.48s-2.43-3.63-2.43-5.92.81-4.17,2.43-5.82c1.62-1.65,3.68-2.48,6.16-2.48s4.52.83,6.11,2.48c1.59,1.66,2.39,3.6,2.39,5.82s-.8,4.26-2.39,5.92c-1.59,1.65-3.63,2.48-6.11,2.48Z"/>
        <path d="M412.67,237.77l-4.4,2.15c-.34.17-.61.44-.78.78l-2.13,4.39c-.31.63-1.21.64-1.52,0l-2.15-4.4c-.16-.34-.43-.61-.77-.77l-4.33-2.15c-.63-.31-.63-1.21,0-1.52l4.33-2.14c.34-.17.61-.44.77-.78l2.15-4.4c.31-.63,1.21-.63,1.52,0l2.13,4.39c.17.34.44.62.78.78l4.39,2.13c.63.31.64,1.21,0,1.52Z"/>
      </g>
    </g>
  </g>
</svg>