<?xml version="1.0" encoding="UTF-8"?>
<svg id="Layer_2" data-name="Layer 2" xmlns="http://www.w3.org/2000/svg" viewBox="0 0 512.19 129.14">
  <defs>
    <style>
      .cls-1 {
        fill: #fff;
      }
    </style>
  </defs>
  <g id="Layer_1-2" data-name="Layer 1">
    <g>
      <g>
        <g>
          <path class="cls-1" d="M80.78,92.79v-3.57c-3.2-.26-6.12-1.18-8.77-2.76-2.37-1.41-4.4-3.45-6.09-6.12-.34-.54-.16-1.25.37-1.59l5.94-3.78c.54-.35,1.28-.19,1.61.36,1.08,1.84,2.38,3.22,3.91,4.13,1.8,1.07,3.7,1.61,5.72,1.61,2.15,0,3.84-.48,5.06-1.45,1.23-.96,1.84-2.23,1.84-3.81s-.48-2.76-1.45-3.68-2.25-1.66-3.84-2.24c-1.6-.57-3.34-1.09-5.23-1.58-3.55-.92-6.38-2.44-8.48-4.57-2.1-2.13-3.15-4.92-3.15-8.38s1.14-6.58,3.42-8.97c2.28-2.39,5.32-3.89,9.14-4.5v-5.54c0-.64.52-1.17,1.17-1.17h4.9c.64,0,1.17.52,1.17,1.17v5.54c2.59.48,4.82,1.42,6.71,2.83,1.59,1.19,3.01,2.67,4.26,4.45.38.54.2,1.29-.36,1.64l-5.89,3.63c-.52.32-1.21.19-1.56-.31-.91-1.34-1.86-2.35-2.83-3.03-1.18-.83-2.63-1.25-4.34-1.25-1.84,0-3.36.46-4.57,1.38-1.21.92-1.81,2.15-1.81,3.68,0,1.71.71,2.95,2.14,3.71,1.42.77,3.14,1.46,5.16,2.07,1.36.44,2.88.95,4.57,1.54,1.69.59,3.32,1.4,4.9,2.43,1.58,1.03,2.87,2.4,3.88,4.11,1.01,1.71,1.51,3.88,1.51,6.51,0,3.46-1.03,6.39-3.09,8.78-2.06,2.39-4.95,3.96-8.68,4.7v4.03c0,.64-.52,1.17-1.17,1.17h-4.9c-.64,0-1.17-.52-1.17-1.17Z"/>
          <path class="cls-1" d="M63.69,42.42H30.53c-.64,0-1.17.52-1.17,1.17v5.95c0,.64.52,1.17,1.17,1.17h11.98v9.34l-5.94,2.16c-.46.17-.77.61-.77,1.09v5.8c0,.81.8,1.37,1.56,1.1l5.14-1.87v3.73l-5.94,2.16c-.46.17-.77.61-.77,1.1v5.8c0,.81.8,1.37,1.56,1.1l5.14-1.87v6.93c0,.64.52,1.17,1.17,1.17h6.87c.64,0,1.17-.52,1.17-1.17v-10.28l5.94-2.16c.46-.17.77-.61.77-1.1v-5.8c0-.81-.8-1.37-1.56-1.1l-5.14,1.87v-3.73l5.94-2.16c.46-.17.77-.61.77-1.09v-5.8c0-.81-.8-1.37-1.56-1.1l-5.14,1.87v-5.99h11.98c.64,0,1.17-.52,1.17-1.17v-5.95c0-.64-.52-1.17-1.17-1.17Z"/>
        </g>
        <path class="cls-1" d="M103.51,129.14H25.64c-14.14,0-25.64-11.5-25.64-25.64V25.64C0,11.5,11.5,0,25.64,0h77.87c14.14,0,25.64,11.5,25.64,25.64v77.87c0,14.14-11.5,25.64-25.64,25.64ZM25.64,4.66C14.07,4.66,4.66,14.07,4.66,25.64v77.87c0,11.57,9.41,20.98,20.98,20.98h77.87c11.57,0,20.98-9.41,20.98-20.98V25.64c0-11.57-9.41-20.98-20.98-20.98H25.64Z"/>
        <path class="cls-1" d="M107.24,29.82l-3.03,1.48c-.23.11-.42.3-.54.54l-1.47,3.03c-.21.44-.83.44-1.05,0l-1.48-3.03c-.11-.23-.3-.42-.53-.53l-2.98-1.48c-.43-.21-.43-.83,0-1.04l2.98-1.47c.23-.11.42-.3.53-.53l1.48-3.03c.21-.44.84-.44,1.05,0l1.47,3.02c.11.24.3.42.54.54l3.02,1.47c.44.21.44.83,0,1.05Z"/>
      </g>
      <g>
        <path class="cls-1" d="M180.92,92.18v-44.65h-14.63c-.79,0-1.42-.64-1.42-1.42v-7.27c0-.79.64-1.42,1.42-1.42h40.5c.79,0,1.42.64,1.42,1.42v7.27c0,.79-.64,1.42-1.42,1.42h-14.63v44.65c0,.79-.64,1.42-1.42,1.42h-8.39c-.79,0-1.42-.64-1.42-1.42Z"/>
        <path class="cls-1" d="M228.88,94.64c-4.44,0-8.52-.95-12.24-2.85-3.36-1.72-6.21-4.41-8.55-8.07-.42-.65-.2-1.53.45-1.95l7.25-4.61c.67-.42,1.57-.23,1.97.45,1.32,2.25,2.91,3.93,4.77,5.04,2.19,1.31,4.52,1.97,6.98,1.97,2.62,0,4.68-.59,6.18-1.77,1.5-1.18,2.25-2.73,2.25-4.66s-.59-3.37-1.77-4.49-2.74-2.03-4.69-2.73c-1.95-.69-4.08-1.34-6.38-1.93-4.34-1.12-7.79-2.98-10.36-5.58-2.57-2.6-3.85-6.01-3.85-10.23,0-3.37.83-6.31,2.49-8.83,1.66-2.51,3.97-4.47,6.94-5.86,2.97-1.39,6.43-2.09,10.39-2.09,4.39,0,8.05.91,11,2.73,2.57,1.59,4.81,3.75,6.73,6.47.46.66.25,1.58-.44,2.01l-7.19,4.43c-.64.39-1.48.23-1.9-.38-1.12-1.63-2.27-2.87-3.46-3.7-1.44-1.02-3.21-1.53-5.3-1.53-2.25,0-4.11.56-5.58,1.69-1.47,1.12-2.21,2.62-2.21,4.49,0,2.09.87,3.6,2.61,4.54,1.74.94,3.84,1.78,6.3,2.53,1.66.54,3.52,1.16,5.58,1.89,2.06.72,4.05,1.71,5.98,2.97,1.93,1.26,3.5,2.93,4.74,5.02,1.23,2.09,1.85,4.74,1.85,7.95,0,3.37-.83,6.34-2.49,8.91-1.66,2.57-4.01,4.57-7.06,6.02-3.05,1.44-6.72,2.17-11,2.17Z"/>
        <path class="cls-1" d="M249.42,91.64l21.79-53.34c.22-.54.74-.88,1.32-.88h7.8c.58,0,1.1.35,1.32.89l21.72,53.34c.38.94-.31,1.96-1.32,1.96h-9.08c-.6,0-1.13-.38-1.34-.94l-3.51-9.74h-23.44l-3.51,9.74c-.2.56-.74.94-1.34.94h-9.08c-1.01,0-1.7-1.03-1.32-1.96ZM274.38,57.88l-6.02,15.33h16.05l-6.02-15.33c-.8-2.14-1.47-4.28-2.01-6.42,0,0,0,0,0,0-.53,2.3-1.2,4.44-2.01,6.42Z"/>
        <path class="cls-1" d="M439.6,91.64l21.79-53.34c.22-.54.74-.88,1.32-.88h7.8c.58,0,1.1.35,1.32.89l21.72,53.34c.38.94-.31,1.96-1.32,1.96h-9.08c-.6,0-1.13-.38-1.34-.94l-3.51-9.74h-23.44l-3.51,9.74c-.2.56-.74.94-1.34.94h-9.08c-1.01,0-1.7-1.03-1.32-1.96ZM464.56,57.88l-6.02,15.33h16.05l-6.02-15.33c-.8-2.14-1.47-4.28-2.01-6.42,0,0,0,0,0,0-.53,2.3-1.2,4.44-2.01,6.42Z"/>
        <path class="cls-1" d="M306.65,92.18v-53.34c0-.79.64-1.42,1.42-1.42h8.39c.79,0,1.42.64,1.42,1.42v44.65h19.53c.79,0,1.42.64,1.42,1.42v7.27c0,.79-.64,1.42-1.42,1.42h-29.34c-.79,0-1.42-.64-1.42-1.42Z"/>
        <path class="cls-1" d="M344.86,92.18v-53.34c0-.79.64-1.42,1.42-1.42h8.39c.79,0,1.42.64,1.42,1.42v53.34c0,.79-.64,1.42-1.42,1.42h-8.39c-.79,0-1.42-.64-1.42-1.42Z"/>
        <path class="cls-1" d="M499.43,92.18v-53.34c0-.79.64-1.42,1.42-1.42h8.39c.79,0,1.42.64,1.42,1.42v53.34c0,.79-.64,1.42-1.42,1.42h-8.39c-.79,0-1.42-.64-1.42-1.42Z"/>
        <path class="cls-1" d="M364.12,93.6v-56.19h8.51l27.37,32.51c.64.75,1.27,1.51,1.89,2.29.61.78,1.21,1.56,1.81,2.37-.16-1.18-.27-2.58-.32-4.21-.05-1.63-.08-3.28-.08-4.94v-28.01h10.28v56.19h-7.31l-28.41-33.79c-.64-.75-1.27-1.51-1.89-2.29-.61-.77-1.22-1.56-1.81-2.37.16,1.18.27,2.58.32,4.21.05,1.63.08,3.28.08,4.94v29.3h-10.44Z"/>
        <path class="cls-1" d="M426.57,94.64c-2.09,0-3.81-.7-5.18-2.09s-2.05-3.05-2.05-4.98.68-3.5,2.05-4.9c1.36-1.39,3.09-2.09,5.18-2.09s3.8.7,5.14,2.09c1.34,1.39,2.01,3.02,2.01,4.9s-.67,3.59-2.01,4.98c-1.34,1.39-3.05,2.09-5.14,2.09Z"/>
        <path class="cls-1" d="M511.79,26.88l-3.7,1.8c-.29.14-.52.37-.66.66l-1.79,3.69c-.26.53-1.02.53-1.28,0l-1.81-3.7c-.14-.28-.37-.51-.65-.65l-3.64-1.81c-.53-.26-.53-1.01,0-1.28l3.64-1.8c.28-.14.51-.37.65-.65l1.81-3.7c.26-.53,1.02-.53,1.28,0l1.79,3.69c.14.29.37.52.66.66l3.69,1.79c.53.26.53,1.02,0,1.28Z"/>
      </g>
    </g>
  </g>
</svg>