<?xml version="1.0" encoding="UTF-8"?>
<svg id="Layer_2" data-name="Layer 2" xmlns="http://www.w3.org/2000/svg" viewBox="0 0 451.92 451.92">
  <defs>
    <style>
      .cls-1 {
        fill: #020202;
      }
    </style>
  </defs>
  <g id="Layer_1-2" data-name="Layer 1">
    <g>
      <g>
        <path d="M282.69,324.7v-12.48c-11.19-.92-21.43-4.14-30.7-9.66-8.3-4.93-15.39-12.07-21.3-21.41-1.18-1.87-.56-4.38,1.31-5.57l20.8-13.23c1.91-1.21,4.49-.67,5.64,1.28,3.79,6.44,8.35,11.25,13.68,14.44,6.28,3.76,12.95,5.64,20.01,5.64,7.51,0,13.42-1.69,17.71-5.06,4.29-3.37,6.44-7.82,6.44-13.34s-1.69-9.66-5.07-12.88-7.86-5.83-13.45-7.82c-5.6-1.99-11.7-3.83-18.29-5.52-12.42-3.22-22.31-8.55-29.68-15.99-7.36-7.44-11.04-17.21-11.04-29.33s3.99-23.04,11.96-31.4c7.97-8.35,18.63-13.61,31.97-15.76v-19.38c0-2.25,1.83-4.08,4.08-4.08h17.15c2.25,0,4.08,1.83,4.08,4.08v19.38c9.05,1.69,16.87,4.99,23.46,9.89,5.57,4.15,10.54,9.34,14.91,15.57,1.33,1.89.71,4.53-1.26,5.74l-20.62,12.71c-1.82,1.12-4.24.67-5.45-1.1-3.2-4.67-6.5-8.21-9.9-10.61-4.14-2.91-9.2-4.37-15.18-4.37-6.44,0-11.77,1.61-15.98,4.83-4.22,3.22-6.32,7.52-6.32,12.88,0,5.98,2.49,10.32,7.47,13,4.98,2.69,11,5.1,18.06,7.25,4.75,1.54,10.08,3.34,15.99,5.41,5.9,2.07,11.61,4.91,17.13,8.51,5.52,3.61,10.04,8.4,13.57,14.38,3.53,5.98,5.29,13.57,5.29,22.77,0,12.12-3.6,22.35-10.81,30.71-7.21,8.36-17.33,13.84-30.36,16.45v14.09c0,2.25-1.83,4.08-4.08,4.08h-17.15c-2.25,0-4.08-1.83-4.08-4.08Z"/>
        <path d="M222.89,148.44h-116.05c-2.25,0-4.08,1.83-4.08,4.08v20.83c0,2.25,1.83,4.08,4.08,4.08h41.93v32.68l-20.78,7.56c-1.61.59-2.68,2.12-2.68,3.83v20.3c0,2.83,2.81,4.8,5.47,3.83l17.99-6.55v13.04l-20.78,7.56c-1.61.59-2.68,2.12-2.68,3.83v20.3c0,2.83,2.81,4.8,5.47,3.83l17.99-6.55v24.26c0,2.25,1.83,4.08,4.08,4.08h24.05c2.25,0,4.08-1.83,4.08-4.08v-35.98l20.78-7.56c1.61-.59,2.68-2.12,2.68-3.83v-20.3c0-2.83-2.81-4.8-5.47-3.83l-17.99,6.55v-13.04l20.78-7.56c1.61-.59,2.68-2.12,2.68-3.83v-20.3c0-2.83-2.81-4.8-5.47-3.83l-17.99,6.55v-20.96h41.93c2.25,0,4.08-1.83,4.08-4.08v-20.83c0-2.25-1.83-4.08-4.08-4.08Z"/>
      </g>
      <path d="M362.2,451.92H89.71c-49.47,0-89.71-40.24-89.71-89.71V89.71C0,40.24,40.25,0,89.71,0h272.49c49.47,0,89.71,40.24,89.71,89.71v272.49c0,49.47-40.24,89.71-89.71,89.71ZM89.71,16.31c-40.47,0-73.4,32.93-73.4,73.4v272.49c0,40.47,32.93,73.4,73.4,73.4h272.49c40.47,0,73.4-32.93,73.4-73.4V89.71c0-40.47-32.93-73.4-73.4-73.4H89.71Z"/>
      <path class="cls-1" d="M375.27,104.35l-10.59,5.17c-.82.4-1.48,1.06-1.88,1.88l-5.14,10.59c-.74,1.53-2.92,1.53-3.67,0l-5.18-10.61c-.39-.81-1.05-1.46-1.85-1.86l-10.44-5.18c-1.51-.75-1.51-2.91,0-3.66l10.43-5.14c.81-.4,1.46-1.06,1.86-1.87l5.18-10.6c.75-1.53,2.92-1.53,3.67,0l5.14,10.58c.4.82,1.06,1.49,1.89,1.89l10.58,5.14c1.53.74,1.53,2.92,0,3.67Z"/>
    </g>
  </g>
</svg>