<?xml version="1.0" encoding="UTF-8"?>
<svg id="Layer_2" data-name="Layer 2" xmlns="http://www.w3.org/2000/svg" viewBox="0 0 553.53 124.94">
  <defs>
    <style>
      .cls-1 {
        fill: #da2c16;
      }
    </style>
  </defs>
  <g id="Layer_1-2" data-name="Layer 1">
    <g>
      <g>
        <path class="cls-1" d="M182.87,93.36v-49.96h-16.37c-.88,0-1.59-.71-1.59-1.59v-8.13c0-.88.71-1.59,1.59-1.59h45.31c.88,0,1.59.71,1.59,1.59v8.13c0,.88-.71,1.59-1.59,1.59h-16.37v49.96c0,.88-.71,1.59-1.59,1.59h-9.39c-.88,0-1.59-.71-1.59-1.59Z"/>
        <path class="cls-1" d="M236.54,96.12c-4.97,0-9.53-1.06-13.7-3.19-3.76-1.92-6.95-4.93-9.56-9.03-.47-.73-.22-1.71.51-2.18l8.12-5.16c.74-.47,1.75-.26,2.2.5,1.48,2.51,3.26,4.39,5.34,5.64,2.45,1.47,5.06,2.2,7.81,2.2,2.93,0,5.24-.66,6.92-1.98,1.68-1.32,2.52-3.05,2.52-5.21s-.66-3.77-1.98-5.03-3.07-2.27-5.25-3.05c-2.19-.78-4.57-1.5-7.14-2.16-4.85-1.26-8.71-3.34-11.59-6.24-2.87-2.9-4.31-6.72-4.31-11.45,0-3.77.93-7.06,2.78-9.88,1.86-2.81,4.45-5,7.77-6.56,3.32-1.56,7.2-2.34,11.63-2.34,4.91,0,9.01,1.02,12.3,3.05,2.87,1.78,5.38,4.19,7.53,7.24.52.74.28,1.77-.49,2.25l-8.05,4.96c-.71.44-1.66.26-2.13-.43-1.25-1.83-2.54-3.21-3.87-4.14-1.62-1.14-3.59-1.71-5.93-1.71-2.51,0-4.59.63-6.24,1.89-1.65,1.26-2.47,2.93-2.47,5.03,0,2.34.97,4.03,2.92,5.07,1.95,1.05,4.3,1.99,7.05,2.83,1.86.6,3.94,1.3,6.24,2.11,2.3.81,4.53,1.92,6.69,3.32,2.16,1.41,3.92,3.28,5.3,5.61,1.38,2.34,2.07,5.3,2.07,8.89,0,3.77-.93,7.1-2.78,9.97-1.86,2.87-4.49,5.12-7.9,6.74-3.41,1.62-7.52,2.42-12.31,2.42Z"/>
        <path class="cls-1" d="M259.51,92.76l24.38-59.68c.24-.6.83-.99,1.47-.99h8.73c.65,0,1.23.39,1.47.99l24.3,59.68c.43,1.05-.34,2.19-1.47,2.19h-10.17c-.67,0-1.27-.42-1.5-1.05l-3.93-10.89h-26.23l-3.93,10.89c-.23.63-.83,1.05-1.5,1.05h-10.16c-1.13,0-1.9-1.15-1.47-2.19ZM287.45,54.98l-6.74,17.15h17.96l-6.74-17.15c-.9-2.39-1.65-4.79-2.24-7.18,0,0,0,0,0,0-.6,2.57-1.35,4.97-2.24,7.18Z"/>
        <path class="cls-1" d="M472.3,92.76l24.38-59.68c.24-.6.83-.99,1.47-.99h8.73c.65,0,1.23.39,1.47.99l24.3,59.68c.43,1.05-.34,2.19-1.47,2.19h-10.17c-.67,0-1.27-.42-1.5-1.05l-3.93-10.89h-26.23l-3.93,10.89c-.23.63-.83,1.05-1.5,1.05h-10.16c-1.13,0-1.9-1.15-1.47-2.19ZM500.24,54.98l-6.74,17.15h17.96l-6.74-17.15c-.9-2.39-1.65-4.79-2.24-7.18,0,0,0,0,0,0-.6,2.57-1.35,4.97-2.24,7.18Z"/>
        <path class="cls-1" d="M323.55,93.36v-59.68c0-.88.71-1.59,1.59-1.59h9.39c.88,0,1.59.71,1.59,1.59v49.96h21.85c.88,0,1.59.71,1.59,1.59v8.13c0,.88-.71,1.59-1.59,1.59h-32.83c-.88,0-1.59-.71-1.59-1.59Z"/>
        <path class="cls-1" d="M366.3,93.36v-59.68c0-.88.71-1.59,1.59-1.59h9.39c.88,0,1.59.71,1.59,1.59v59.68c0,.88-.71,1.59-1.59,1.59h-9.39c-.88,0-1.59-.71-1.59-1.59Z"/>
        <path class="cls-1" d="M539.25,93.36v-59.68c0-.88.71-1.59,1.59-1.59h9.39c.88,0,1.59.71,1.59,1.59v59.68c0,.88-.71,1.59-1.59,1.59h-9.39c-.88,0-1.59-.71-1.59-1.59Z"/>
        <path class="cls-1" d="M387.85,94.95v-62.87h9.52l30.63,36.37c.72.84,1.42,1.69,2.11,2.56.69.87,1.36,1.75,2.02,2.65-.18-1.32-.3-2.89-.36-4.72-.06-1.83-.09-3.67-.09-5.52v-31.34h11.5v62.87h-8.17l-31.79-37.81c-.72-.84-1.42-1.69-2.11-2.56-.69-.87-1.36-1.75-2.02-2.65.18,1.32.3,2.89.36,4.71.06,1.83.09,3.67.09,5.52v32.78h-11.68Z"/>
        <path class="cls-1" d="M457.73,96.12c-2.34,0-4.27-.78-5.79-2.34s-2.29-3.41-2.29-5.57.76-3.92,2.29-5.48c1.53-1.56,3.46-2.33,5.79-2.33s4.25.78,5.75,2.33c1.5,1.56,2.25,3.38,2.25,5.48s-.75,4.01-2.25,5.57c-1.5,1.56-3.41,2.34-5.75,2.34Z"/>
        <path class="cls-1" d="M553.09,20.3l-4.14,2.02c-.32.16-.58.42-.73.74l-2.01,4.13c-.29.6-1.14.6-1.43,0l-2.02-4.14c-.15-.32-.41-.57-.72-.73l-4.08-2.02c-.59-.29-.59-1.14,0-1.43l4.07-2.01c.32-.16.57-.41.73-.73l2.02-4.14c.29-.6,1.14-.6,1.43,0l2.01,4.13c.16.32.42.58.74.74l4.13,2.01c.6.29.6,1.14,0,1.43Z"/>
      </g>
      <path class="cls-1" d="M101.56,0H23.38C10.46,0,0,10.46,0,23.38v78.18c0,12.92,10.46,23.38,23.38,23.38h78.18c12.92,0,23.38-10.46,23.38-23.38V23.38c0-12.92-10.46-23.38-23.38-23.38ZM62.77,47.39c0,.65-.53,1.15-1.18,1.15h-12.02v6.01l5.14-1.87c.78-.28,1.59.28,1.59,1.09v5.82c0,.5-.31.93-.78,1.12l-5.95,2.15v3.77l5.14-1.9c.78-.28,1.59.31,1.59,1.12v5.82c0,.47-.31.93-.78,1.09l-5.95,2.18v10.31c0,.65-.53,1.18-1.18,1.18h-6.88c-.65,0-1.18-.53-1.18-1.18v-6.94l-5.17,1.87c-.75.28-1.56-.28-1.56-1.09v-5.82c0-.5.31-.93.78-1.12l5.95-2.15v-3.77l-5.17,1.9c-.75.28-1.56-.28-1.56-1.12v-5.82c0-.47.31-.9.78-1.09l5.95-2.18v-9.37h-12.02c-.65,0-1.18-.5-1.18-1.15v-5.98c0-.65.53-1.18,1.18-1.18h33.28c.65,0,1.18.53,1.18,1.18v5.98ZM94.71,82.04c-2.09,2.4-4.98,3.95-8.72,4.7v4.05c0,.65-.53,1.18-1.18,1.18h-4.89c-.65,0-1.18-.53-1.18-1.18v-3.58c-3.21-.25-6.16-1.18-8.81-2.77-2.37-1.4-4.42-3.46-6.1-6.13-.34-.53-.16-1.25.37-1.59l5.95-3.8c.56-.34,1.31-.19,1.62.34,1.09,1.87,2.4,3.24,3.92,4.14,1.81,1.09,3.74,1.62,5.76,1.62,2.15,0,3.83-.47,5.07-1.43,1.25-.97,1.84-2.24,1.84-3.83s-.47-2.77-1.43-3.71c-.97-.9-2.27-1.65-3.86-2.24-1.62-.56-3.36-1.09-5.26-1.59-3.55-.9-6.38-2.43-8.5-4.58s-3.18-4.95-3.18-8.41,1.15-6.6,3.42-9c2.3-2.4,5.35-3.92,9.18-4.55v-5.54c0-.65.53-1.18,1.18-1.18h4.89c.65,0,1.18.53,1.18,1.18v5.54c2.58.5,4.83,1.43,6.72,2.83,1.62,1.21,3.02,2.71,4.3,4.48.37.53.19,1.31-.37,1.65l-5.92,3.64c-.53.31-1.21.19-1.56-.31-.93-1.34-1.87-2.37-2.83-3.05-1.18-.84-2.65-1.25-4.36-1.25-1.87,0-3.39.47-4.61,1.37-1.18.93-1.81,2.18-1.81,3.7,0,1.71.72,2.96,2.15,3.74,1.43.75,3.14,1.46,5.17,2.05,1.37.47,2.9.97,4.61,1.56,1.68.59,3.33,1.4,4.92,2.46,1.56,1.03,2.86,2.4,3.89,4.11,1,1.71,1.49,3.89,1.49,6.54,0,3.49-1.03,6.41-3.08,8.81ZM105.29,27.58l-3.05,1.49c-.22.09-.4.31-.53.53l-1.46,3.05c-.22.44-.84.44-1.06,0l-1.49-3.05c-.09-.25-.28-.44-.53-.53l-2.99-1.49c-.44-.22-.44-.84,0-1.06l2.99-1.46c.25-.12.44-.31.53-.53l1.49-3.05c.22-.44.84-.44,1.06,0l1.46,3.05c.12.22.31.4.53.53l3.05,1.46c.44.22.44.84,0,1.06Z"/>
    </g>
  </g>
</svg>