<?xml version="1.0" encoding="UTF-8"?>
<svg id="Layer_2" data-name="Layer 2" xmlns="http://www.w3.org/2000/svg" viewBox="0 0 258.16 258.15">
  <g id="Layer_1-2" data-name="Layer 1">
    <path d="M206.91,0H51.25C22.99,0,0,22.98,0,51.25v155.66c0,28.26,22.99,51.25,51.25,51.25h155.67c28.26,0,51.25-22.99,51.25-51.25V51.25c0-28.26-22.99-51.25-51.25-51.25ZM129.66,99.02c0,1.28-1.04,2.33-2.33,2.33h-23.95v11.97l10.28-3.74c1.52-.56,3.12.57,3.12,2.19v11.6c0,.98-.61,1.86-1.53,2.19l-11.87,4.32v7.45l10.28-3.74c1.52-.56,3.12.57,3.12,2.19v11.6c0,.98-.61,1.85-1.53,2.19l-11.87,4.32v20.56c0,1.28-1.04,2.33-2.34,2.33h-13.73c-1.28,0-2.33-1.04-2.33-2.33v-13.86l-10.28,3.74c-1.52.56-3.13-.57-3.13-2.19v-11.6c0-.98.61-1.86,1.53-2.19l11.87-4.32v-7.45l-10.28,3.75c-1.52.55-3.13-.58-3.13-2.19v-11.6c0-.98.61-1.85,1.53-2.19l11.87-4.32v-18.67h-23.95c-1.28,0-2.34-1.04-2.34-2.33v-11.9c0-1.28,1.05-2.33,2.34-2.33h66.3c1.28,0,2.33,1.04,2.33,2.33v11.9ZM193.28,168.03c-4.11,4.78-9.9,7.91-17.34,9.4v8.05c0,1.28-1.04,2.33-2.33,2.33h-9.79c-1.28,0-2.33-1.04-2.33-2.33v-7.13c-6.4-.53-12.25-2.37-17.54-5.52-4.74-2.82-8.79-6.89-12.16-12.23-.68-1.07-.33-2.5.74-3.18l11.88-7.56c1.09-.7,2.57-.38,3.22.73,2.17,3.68,4.77,6.43,7.82,8.25,3.6,2.14,7.4,3.22,11.43,3.22,4.3,0,7.67-.97,10.12-2.89s3.68-4.46,3.68-7.62-.96-5.52-2.89-7.36c-1.93-1.84-4.49-3.33-7.69-4.47-3.2-1.13-6.67-2.19-10.44-3.15-7.1-1.84-12.75-4.88-16.95-9.13-4.2-4.25-6.31-9.83-6.31-16.75s2.28-13.16,6.83-17.94c4.55-4.77,10.64-7.78,18.27-9v-11.07c0-1.28,1.04-2.33,2.33-2.33h9.79c1.28,0,2.33,1.04,2.33,2.33v11.07c5.17.97,9.64,2.85,13.41,5.66,3.18,2.37,6.02,5.33,8.52,8.89.76,1.08.4,2.59-.72,3.28l-11.78,7.26c-1.04.64-2.42.38-3.11-.63-1.83-2.67-3.71-4.7-5.66-6.06-2.37-1.66-5.26-2.49-8.68-2.49-3.67,0-6.72.92-9.13,2.76-2.41,1.84-3.61,4.3-3.61,7.36,0,3.41,1.42,5.89,4.27,7.42,2.84,1.53,6.28,2.91,10.31,4.14,2.71.88,5.76,1.9,9.13,3.09,3.37,1.18,6.63,2.8,9.79,4.86,3.15,2.06,5.74,4.8,7.75,8.21,2.02,3.42,3.03,7.76,3.03,13.01,0,6.92-2.06,12.76-6.18,17.54ZM214.37,59.61l-6.05,2.95c-.47.23-.84.61-1.08,1.08l-2.94,6.05c-.43.88-1.67.88-2.09,0l-2.95-6.06c-.23-.46-.6-.83-1.06-1.07l-5.96-2.95c-.87-.43-.86-1.66,0-2.09l5.96-2.94c.47-.23.84-.6,1.07-1.07l2.95-6.06c.43-.87,1.67-.87,2.09,0l2.94,6.05c.23.47.61.85,1.08,1.08l6.05,2.94c.88.43.88,1.67,0,2.09Z"/>
  </g>
</svg>