<?xml version="1.0" encoding="UTF-8"?>
<svg id="Layer_2" data-name="Layer 2" xmlns="http://www.w3.org/2000/svg" viewBox="0 0 299.59 299.59">
  <defs>
    <style>
      .cls-1 {
        fill: #fbd433;
      }
    </style>
  </defs>
  <g id="Layer_1-2" data-name="Layer 1">
    <g>
      <g>
        <path class="cls-1" d="M187.4,215.25v-8.28c-7.42-.61-14.21-2.74-20.35-6.4-5.5-3.27-10.2-8-14.12-14.2-.78-1.24-.37-2.9.87-3.69l13.79-8.77c1.26-.8,2.98-.44,3.74.85,2.51,4.27,5.53,7.46,9.07,9.57,4.17,2.49,8.59,3.74,13.26,3.74,4.98,0,8.9-1.12,11.74-3.36,2.85-2.23,4.27-5.18,4.27-8.84s-1.12-6.4-3.36-8.54-5.21-3.86-8.92-5.18c-3.71-1.32-7.75-2.54-12.12-3.66-8.24-2.14-14.79-5.67-19.67-10.6-4.88-4.93-7.32-11.41-7.32-19.44s2.64-15.27,7.93-20.81c5.29-5.54,12.35-9.02,21.19-10.45v-12.85c0-1.49,1.21-2.7,2.7-2.7h11.37c1.49,0,2.7,1.21,2.7,2.7v12.85c6,1.12,11.18,3.31,15.55,6.56,3.69,2.75,6.99,6.19,9.89,10.32.88,1.25.47,3-.83,3.81l-13.67,8.43c-1.21.74-2.81.44-3.61-.73-2.12-3.1-4.31-5.44-6.57-7.03-2.74-1.93-6.1-2.9-10.06-2.9-4.27,0-7.8,1.07-10.6,3.2-2.8,2.14-4.19,4.98-4.19,8.54,0,3.97,1.65,6.84,4.96,8.62,3.3,1.78,7.29,3.38,11.97,4.8,3.15,1.02,6.68,2.21,10.6,3.58,3.91,1.37,7.7,3.26,11.36,5.64,3.66,2.39,6.66,5.57,9,9.53,2.34,3.97,3.51,9,3.51,15.1,0,8.03-2.39,14.82-7.17,20.36-4.78,5.54-11.49,9.18-20.13,10.9v9.34c0,1.49-1.21,2.7-2.7,2.7h-11.37c-1.49,0-2.7-1.21-2.7-2.7Z"/>
        <path class="cls-1" d="M147.76,98.41h-76.94c-1.49,0-2.7,1.21-2.7,2.7v13.81c0,1.49,1.21,2.7,2.7,2.7h27.79v21.67l-13.77,5.01c-1.07.39-1.78,1.4-1.78,2.54v13.46c0,1.88,1.87,3.18,3.63,2.54l11.93-4.34v8.65l-13.77,5.01c-1.07.39-1.78,1.4-1.78,2.54v13.46c0,1.88,1.87,3.18,3.63,2.54l11.93-4.34v16.08c0,1.49,1.21,2.7,2.7,2.7h15.94c1.49,0,2.7-1.21,2.7-2.7v-23.85l13.77-5.01c1.07-.39,1.78-1.4,1.78-2.54v-13.46c0-1.88-1.86-3.18-3.63-2.54l-11.93,4.34v-8.65l13.77-5.01c1.07-.39,1.78-1.4,1.78-2.54v-13.46c0-1.88-1.86-3.18-3.63-2.54l-11.93,4.34v-13.9h27.79c1.49,0,2.7-1.21,2.7-2.7v-13.81c0-1.49-1.21-2.7-2.7-2.7Z"/>
      </g>
      <path class="cls-1" d="M240.12,299.59H59.47c-32.79,0-59.47-26.68-59.47-59.47V59.47C0,26.68,26.68,0,59.47,0h180.64c32.79,0,59.47,26.68,59.47,59.47v180.64c0,32.79-26.68,59.47-59.47,59.47ZM59.47,10.81c-26.83,0-48.66,21.83-48.66,48.66v180.64c0,26.83,21.83,48.66,48.66,48.66h180.64c26.83,0,48.66-21.83,48.66-48.66V59.47c0-26.83-21.83-48.66-48.66-48.66H59.47Z"/>
      <path class="cls-1" d="M248.78,69.18l-7.02,3.43c-.54.27-.98.7-1.25,1.25l-3.41,7.02c-.49,1.01-1.94,1.02-2.43,0l-3.43-7.03c-.26-.54-.69-.97-1.23-1.24l-6.92-3.43c-1-.5-1-1.93,0-2.42l6.91-3.41c.54-.26.97-.7,1.23-1.24l3.43-7.03c.49-1.01,1.94-1.01,2.43,0l3.41,7.01c.26.55.71.99,1.25,1.25l7.01,3.41c1.01.49,1.02,1.94,0,2.43Z"/>
    </g>
  </g>
</svg>