<?xml version="1.0" encoding="UTF-8"?>
<svg id="Layer_2" data-name="Layer 2" xmlns="http://www.w3.org/2000/svg" viewBox="0 0 299.6 299.59">
  <defs>
    <style>
      .cls-1 {
        fill: #da2c16;
      }
    </style>
  </defs>
  <g id="Layer_1-2" data-name="Layer 1">
    <path class="cls-1" d="M240.13,0H59.47C26.68,0,0,26.67,0,59.47v180.65c0,32.79,26.68,59.47,59.47,59.47h180.66c32.79,0,59.47-26.68,59.47-59.47V59.47c0-32.8-26.68-59.47-59.47-59.47ZM150.47,114.92c0,1.49-1.21,2.7-2.7,2.7h-27.8v13.89l11.93-4.34c1.76-.65,3.62.66,3.62,2.54v13.46c0,1.14-.71,2.16-1.77,2.55l-13.78,5.02v8.65l11.93-4.34c1.76-.65,3.62.66,3.62,2.54v13.46c0,1.14-.71,2.15-1.77,2.55l-13.78,5.02v23.85c0,1.49-1.21,2.7-2.71,2.7h-15.94c-1.49,0-2.7-1.21-2.7-2.7v-16.09l-11.93,4.34c-1.76.65-3.63-.66-3.63-2.54v-13.46c0-1.14.71-2.16,1.78-2.55l13.78-5.01v-8.65l-11.93,4.35c-1.76.64-3.63-.67-3.63-2.55v-13.46c0-1.13.71-2.15,1.78-2.54l13.78-5.02v-21.67h-27.8c-1.49,0-2.71-1.21-2.71-2.7v-13.82c0-1.49,1.22-2.7,2.71-2.7h76.94c1.49,0,2.7,1.21,2.7,2.7v13.82ZM224.31,195c-4.77,5.55-11.49,9.18-20.13,10.91v9.34c0,1.49-1.21,2.7-2.7,2.7h-11.37c-1.49,0-2.7-1.21-2.7-2.7v-8.28c-7.43-.61-14.21-2.75-20.36-6.41-5.5-3.27-10.2-8-14.12-14.19-.78-1.24-.38-2.9.86-3.69l13.79-8.77c1.27-.81,2.98-.45,3.74.84,2.52,4.27,5.54,7.46,9.07,9.57,4.17,2.49,8.59,3.74,13.26,3.74,4.99,0,8.9-1.12,11.74-3.36s4.27-5.18,4.27-8.84-1.11-6.41-3.35-8.54c-2.24-2.14-5.21-3.86-8.93-5.19-3.71-1.32-7.75-2.54-12.12-3.66-8.24-2.14-14.79-5.66-19.67-10.6-4.88-4.93-7.32-11.4-7.32-19.44s2.64-15.27,7.93-20.82c5.29-5.54,12.35-9.02,21.2-10.45v-12.85c0-1.49,1.21-2.7,2.7-2.7h11.37c1.49,0,2.7,1.21,2.7,2.7v12.85c6,1.12,11.18,3.31,15.56,6.56,3.69,2.75,6.99,6.19,9.88,10.32.88,1.25.46,3-.83,3.8l-13.67,8.42c-1.21.75-2.81.45-3.61-.73-2.12-3.1-4.31-5.45-6.56-7.04-2.75-1.93-6.1-2.89-10.07-2.89-4.26,0-7.8,1.06-10.59,3.2-2.8,2.13-4.19,4.99-4.19,8.54,0,3.96,1.65,6.84,4.96,8.62,3.3,1.78,7.29,3.38,11.97,4.8,3.15,1.02,6.68,2.21,10.6,3.58,3.91,1.37,7.7,3.25,11.36,5.64,3.66,2.39,6.66,5.57,8.99,9.53,2.34,3.97,3.51,9,3.51,15.1,0,8.03-2.39,14.81-7.17,20.35ZM248.78,69.17l-7.02,3.43c-.54.27-.98.71-1.25,1.25l-3.41,7.02c-.49,1.02-1.94,1.02-2.43,0l-3.43-7.03c-.27-.53-.7-.97-1.23-1.24l-6.92-3.43c-1.01-.5-1-1.93,0-2.43l6.91-3.41c.54-.26.98-.7,1.24-1.24l3.43-7.03c.49-1.01,1.94-1.01,2.43,0l3.41,7.02c.26.54.71.99,1.25,1.25l7.02,3.41c1.02.49,1.02,1.94,0,2.43Z"/>
  </g>
</svg>