<?xml version="1.0" encoding="UTF-8"?>
<svg id="Layer_2" data-name="Layer 2" xmlns="http://www.w3.org/2000/svg" viewBox="0 0 413.14 318.38">
  <g id="Layer_1-2" data-name="Layer 1">
    <g>
      <g>
        <path d="M19.1,315.44v-53.11H1.69c-.93,0-1.69-.76-1.69-1.69v-8.65c0-.93.76-1.69,1.69-1.69h48.17c.93,0,1.69.76,1.69,1.69v8.65c0,.93-.76,1.69-1.69,1.69h-17.4v53.11c0,.93-.76,1.69-1.69,1.69h-9.98c-.93,0-1.69-.76-1.69-1.69Z"/>
        <path d="M76.15,318.38c-5.28,0-10.14-1.13-14.56-3.39-4-2.04-7.39-5.24-10.17-9.6-.5-.78-.24-1.82.54-2.32l8.63-5.49c.79-.5,1.86-.28,2.34.53,1.57,2.67,3.46,4.67,5.68,5.99,2.61,1.56,5.38,2.34,8.3,2.34,3.12,0,5.57-.7,7.35-2.1,1.78-1.4,2.67-3.25,2.67-5.54s-.7-4.01-2.1-5.35-3.26-2.42-5.58-3.25c-2.32-.83-4.85-1.59-7.59-2.29-5.16-1.34-9.26-3.55-12.32-6.64-3.05-3.09-4.58-7.14-4.58-12.17,0-4.01.99-7.51,2.96-10.5,1.97-2.99,4.73-5.31,8.26-6.97,3.53-1.65,7.65-2.48,12.36-2.48,5.22,0,9.58,1.08,13.08,3.25,3.05,1.89,5.72,4.46,8,7.7.55.79.3,1.88-.52,2.39l-8.55,5.27c-.76.47-1.76.28-2.26-.46-1.33-1.94-2.7-3.41-4.11-4.4-1.72-1.21-3.82-1.81-6.3-1.81-2.67,0-4.88.67-6.64,2.01-1.75,1.34-2.62,3.12-2.62,5.35,0,2.48,1.03,4.28,3.1,5.39,2.07,1.11,4.57,2.12,7.49,3.01,1.97.64,4.18,1.38,6.64,2.24,2.45.86,4.82,2.04,7.11,3.53,2.29,1.5,4.17,3.49,5.63,5.97,1.46,2.48,2.2,5.63,2.2,9.45,0,4.01-.99,7.54-2.96,10.6-1.97,3.05-4.77,5.44-8.4,7.16-3.63,1.72-7.99,2.58-13.08,2.58Z"/>
        <path d="M100.57,314.8l25.92-63.45c.26-.64.88-1.05,1.57-1.05h9.28c.69,0,1.31.42,1.57,1.05l25.83,63.45c.45,1.11-.37,2.33-1.57,2.33h-10.81c-.71,0-1.35-.45-1.59-1.12l-4.18-11.58h-27.88l-4.18,11.58c-.24.67-.88,1.12-1.59,1.12h-10.8c-1.2,0-2.02-1.22-1.57-2.33ZM130.27,274.65l-7.16,18.24h19.1l-7.16-18.24c-.95-2.54-1.75-5.09-2.39-7.63,0,0,0,0,0,0-.64,2.74-1.43,5.28-2.39,7.63Z"/>
        <path d="M326.79,314.8l25.92-63.45c.26-.64.88-1.05,1.57-1.05h9.28c.69,0,1.31.42,1.57,1.05l25.83,63.45c.45,1.11-.37,2.33-1.57,2.33h-10.81c-.71,0-1.35-.45-1.59-1.12l-4.18-11.58h-27.88l-4.18,11.58c-.24.67-.88,1.12-1.59,1.12h-10.8c-1.2,0-2.02-1.22-1.57-2.33ZM356.49,274.65l-7.16,18.24h19.1l-7.16-18.24c-.95-2.54-1.75-5.09-2.39-7.63,0,0,0,0,0,0-.64,2.74-1.43,5.28-2.39,7.63Z"/>
        <path d="M168.65,315.44v-63.45c0-.93.76-1.69,1.69-1.69h9.98c.93,0,1.69.76,1.69,1.69v53.11h23.23c.93,0,1.69.76,1.69,1.69v8.65c0,.93-.76,1.69-1.69,1.69h-34.9c-.93,0-1.69-.76-1.69-1.69Z"/>
        <path d="M214.1,315.44v-63.45c0-.93.76-1.69,1.69-1.69h9.98c.93,0,1.69.76,1.69,1.69v63.45c0,.93-.76,1.69-1.69,1.69h-9.98c-.93,0-1.69-.76-1.69-1.69Z"/>
        <path d="M397.96,315.44v-63.45c0-.93.76-1.69,1.69-1.69h9.98c.93,0,1.69.76,1.69,1.69v63.45c0,.93-.76,1.69-1.69,1.69h-9.98c-.93,0-1.69-.76-1.69-1.69Z"/>
        <path d="M237.01,317.14v-66.84h10.12l32.56,38.67c.76.89,1.51,1.8,2.24,2.72.73.92,1.44,1.86,2.15,2.82-.19-1.4-.32-3.07-.38-5.01-.06-1.94-.1-3.9-.1-5.87v-33.32h12.22v66.84h-8.69l-33.8-40.2c-.76-.89-1.51-1.8-2.24-2.72-.73-.92-1.45-1.86-2.15-2.82.19,1.4.32,3.07.38,5.01.06,1.94.1,3.9.1,5.87v34.85h-12.41Z"/>
        <path d="M311.29,318.38c-2.48,0-4.54-.83-6.16-2.48s-2.43-3.63-2.43-5.92.81-4.17,2.43-5.82c1.62-1.65,3.68-2.48,6.16-2.48s4.52.83,6.11,2.48c1.59,1.66,2.39,3.6,2.39,5.82s-.8,4.26-2.39,5.92c-1.59,1.65-3.63,2.48-6.11,2.48Z"/>
        <path d="M412.67,237.77l-4.4,2.15c-.34.17-.61.44-.78.78l-2.13,4.39c-.31.63-1.21.64-1.52,0l-2.15-4.4c-.16-.34-.43-.61-.77-.77l-4.33-2.15c-.63-.31-.63-1.21,0-1.52l4.33-2.14c.34-.17.61-.44.77-.78l2.15-4.4c.31-.63,1.21-.63,1.52,0l2.13,4.39c.17.34.44.62.78.78l4.39,2.13c.63.31.64,1.21,0,1.52Z"/>
      </g>
      <path d="M265.53,0h-117.92c-19.49,0-35.27,15.78-35.27,35.27v117.92c0,19.49,15.78,35.27,35.27,35.27h117.92c19.49,0,35.27-15.78,35.27-35.27V35.27c0-19.49-15.78-35.27-35.27-35.27ZM207.02,71.48c0,.99-.8,1.74-1.78,1.74h-18.13v9.06l7.75-2.82c1.17-.42,2.4.42,2.4,1.64v8.78c0,.75-.47,1.41-1.17,1.69l-8.97,3.24v5.68l7.75-2.87c1.17-.42,2.4.47,2.4,1.69v8.78c0,.71-.47,1.41-1.17,1.64l-8.97,3.29v15.55c0,.99-.8,1.78-1.78,1.78h-10.38c-.99,0-1.78-.8-1.78-1.78v-10.47l-7.8,2.82c-1.13.42-2.35-.42-2.35-1.64v-8.78c0-.75.47-1.41,1.17-1.69l8.97-3.24v-5.68l-7.8,2.87c-1.13.42-2.35-.42-2.35-1.69v-8.78c0-.71.47-1.36,1.17-1.64l8.97-3.29v-14.14h-18.13c-.99,0-1.78-.75-1.78-1.74v-9.02c0-.99.8-1.78,1.78-1.78h50.2c.99,0,1.78.8,1.78,1.78v9.02ZM255.2,123.75c-3.15,3.62-7.51,5.96-13.15,7.09v6.11c0,.99-.8,1.78-1.78,1.78h-7.37c-.99,0-1.78-.8-1.78-1.78v-5.4c-4.84-.37-9.3-1.78-13.29-4.18-3.57-2.11-6.67-5.21-9.2-9.25-.52-.8-.23-1.88.56-2.4l8.97-5.73c.85-.52,1.97-.28,2.44.52,1.64,2.82,3.62,4.88,5.92,6.25,2.72,1.64,5.64,2.44,8.69,2.44,3.24,0,5.78-.7,7.66-2.16,1.88-1.46,2.77-3.38,2.77-5.78s-.7-4.18-2.16-5.59c-1.46-1.36-3.43-2.49-5.82-3.38-2.44-.85-5.07-1.64-7.94-2.4-5.35-1.36-9.63-3.66-12.82-6.9s-4.79-7.47-4.79-12.68,1.74-9.96,5.17-13.57c3.48-3.62,8.08-5.92,13.85-6.86v-8.36c0-.99.8-1.78,1.78-1.78h7.37c.99,0,1.78.8,1.78,1.78v8.36c3.9.75,7.28,2.16,10.14,4.27,2.44,1.83,4.56,4.09,6.48,6.76.56.8.28,1.97-.56,2.49l-8.92,5.49c-.8.47-1.83.28-2.35-.47-1.41-2.02-2.82-3.57-4.27-4.6-1.78-1.27-3.99-1.88-6.57-1.88-2.82,0-5.12.7-6.95,2.07-1.78,1.41-2.72,3.29-2.72,5.59,0,2.58,1.08,4.46,3.24,5.64,2.16,1.13,4.74,2.21,7.8,3.1,2.07.71,4.37,1.46,6.95,2.35,2.54.89,5.03,2.11,7.42,3.71,2.35,1.55,4.32,3.62,5.87,6.2,1.5,2.58,2.25,5.87,2.25,9.86,0,5.26-1.55,9.67-4.65,13.29ZM271.17,41.61l-4.6,2.25c-.33.14-.61.47-.8.8l-2.21,4.6c-.33.66-1.27.66-1.6,0l-2.25-4.6c-.14-.37-.42-.66-.8-.8l-4.51-2.25c-.66-.33-.66-1.27,0-1.6l4.51-2.21c.38-.19.66-.47.8-.8l2.25-4.6c.33-.66,1.27-.66,1.6,0l2.21,4.6c.19.33.47.61.8.8l4.6,2.21c.66.33.66,1.27,0,1.6Z"/>
    </g>
  </g>
</svg>